<svg xmlns="http://www.w3.org/2000/svg" viewBox="0 0 24 24" fill="none">
  <defs>
    <linearGradient id="g" x1="5" y1="3" x2="19" y2="21" gradientUnits="userSpaceOnUse">
      <stop stop-color="#C7B7FF"/>
      <stop offset="0.55" stop-color="#9B7CFF"/>
      <stop offset="1" stop-color="#755DFF"/>
    </linearGradient>
  </defs>
  <path d="M13.2 2.8c.45 2.4-.45 3.85-1.7 5.2-1.3 1.4-2.85 2.75-2.85 5.05 0 1.35.7 2.55 1.8 3.25-.15-1.6.55-2.8 1.55-3.75.95-.9 1.9-1.85 2.05-3.45 2.2 1.45 3.45 3.55 3.45 6 0 3.65-2.55 6.1-5.85 6.1-3.6 0-6.15-2.55-6.15-6.15 0-3.1 1.75-5.05 3.6-6.8 1.75-1.65 3.55-3.2 4.1-5.45Z" stroke="url(#g)" stroke-width="1.85" stroke-linecap="round" stroke-linejoin="round"/>
</svg>
